<?xml version="1.0" encoding="UTF-8" standalone="no"?>
<svg
   width="40"
   height="40"
   viewBox="0 0 10.583334 10.583334"
   version="1.1"
   id="svg8"
   xmlns="http://www.w3.org/2000/svg"
   xmlns:svg="http://www.w3.org/2000/svg"
   xmlns:rdf="http://www.w3.org/1999/02/22-rdf-syntax-ns#"
   xmlns:cc="http://creativecommons.org/ns#"
   xmlns:dc="http://purl.org/dc/elements/1.1/">
  <defs
     id="defs2" />
  <metadata
     id="metadata5">
    <rdf:RDF>
      <cc:Work
         rdf:about="">
        <dc:format>image/svg+xml</dc:format>
        <dc:type
           rdf:resource="http://purl.org/dc/dcmitype/StillImage" />
      </cc:Work>
    </rdf:RDF>
  </metadata>
  <g
     id="layer1"
     transform="translate(318.96502,-95.83825)">
    <path
       id="circle1151"
       style="opacity:1;fill:#000000;fill-opacity:1;stroke-width:0.205407"
       d="m -316.31919,103.77576 a 2.645832,2.645832 0 0 1 -2.64583,-2.64584 2.645832,2.645832 0 0 1 2.64583,-2.645846 2.645832,2.645832 0 0 1 2.64585,2.645846 2.645832,2.645832 0 0 1 -2.64585,2.64584 z m 0,-1.32292 a 1.3229159,1.3229159 0 0 0 1.3229,-1.32292 1.3229159,1.3229159 0 0 0 -1.3229,-1.322919 1.3229159,1.3229159 0 0 0 -1.3229,1.322919 1.3229159,1.3229159 0 0 0 1.3229,1.32292 z" />
    <path
       id="circle1153"
       style="opacity:1;fill:#000000;fill-opacity:1;stroke-width:0.154053"
       d="m -316.32124,98.484079 a 1.984374,1.984374 0 0 0 -1.9823,1.984401 1.984374,1.984374 0 0 0 1.97435,1.98434 1.3229159,1.3229159 0 0 1 -1.3129,-1.32289 1.3229159,1.3229159 0 0 1 1.32292,-1.32292 1.3229159,1.3229159 0 0 1 1.32293,1.32292 v 1.32124 c 0,0.73288 0.59,1.3229 1.3229,1.3229 v -2.64414 a 2.645832,2.645832 0 0 0 -2.628,-2.645786 2.645832,2.645832 0 0 0 -0.0125,-6.2e-5 2.645832,2.645832 0 0 0 -0.002,0 1.984374,1.984374 0 0 0 -0.002,0 z" />
    <path
       id="circle1151-3"
       style="fill:#000000;fill-opacity:1;stroke-width:0.205407"
       d="m -311.02751,98.484074 a 2.645832,2.645832 0 0 1 2.64583,2.645846 2.645832,2.645832 0 0 1 -2.64583,2.64584 2.645832,2.645832 0 0 1 -2.64583,-2.64584 2.645832,2.645832 0 0 1 2.64583,-2.645846 z m 0,1.322911 a 1.3229159,1.3229159 0 0 0 -1.32293,1.322935 1.3229159,1.3229159 0 0 0 1.32293,1.3229 1.3229159,1.3229159 0 0 0 1.32292,-1.3229 1.3229159,1.3229159 0 0 0 -1.32292,-1.322935 z" />
    <path
       id="circle1153-8"
       style="fill:#000000;fill-opacity:1;stroke-width:0.154053"
       d="m -311.02546,103.77576 a 1.984374,1.984374 0 0 0 1.9823,-1.98438 1.984374,1.984374 0 0 0 -1.97435,-1.98437 1.3229159,1.3229159 0 0 1 1.3129,1.32289 1.3229159,1.3229159 0 0 1 -1.32293,1.32292 1.3229159,1.3229159 0 0 1 -1.3229,-1.32292 v -1.32124 c 0,-0.732895 -0.59,-1.322917 -1.3229,-1.322917 v 2.644157 a 2.645832,2.645832 0 0 0 2.628,2.64576 2.645832,2.645832 0 0 0 0.0125,8e-5 2.645832,2.645832 0 0 0 0.002,0 1.984374,1.984374 0 0 0 0.002,0 z" />
  </g>
</svg>
