<svg width="48" height="48" version="1.1" viewBox="0 0 16 16" xmlns="http://www.w3.org/2000/svg">
 <g transform="translate(318.97 -95.838)">
  <path d="m-314.97 99.838a4.0001 3.9998 0 0 0-3.997 3.9998 4.0001 3.9998 0 0 0 4.0001 3.9998 4.0001 3.9998 0 0 0 2.4001-0.79996c0.36431 0.48467 0.94428 0.79733 1.6 0.79733v-3.9972a4.0001 3.9998 0 0 0-0.0104-0.2875 4.0001 3.9998 0 0 0-1e-3 -0.0213 4.0001 3.9998 0 0 0-0.0302-0.26768 4.0001 3.9998 0 0 0-4e-3 -0.0286 4.0001 3.9998 0 0 0-0.0532-0.28123 4.0001 3.9998 0 0 0-1e-3 -5e-3 4.0001 3.9998 0 0 0-0.0713-0.26926 4.0001 3.9998 0 0 0-8e-3 -0.0248 4.0001 3.9998 0 0 0-0.0886-0.25417 4.0001 3.9998 0 0 0-0.0126-0.0303 4.0001 3.9998 0 0 0-0.11204-0.25833 4.0001 3.9998 0 0 0-3e-3 -5e-3 4.0001 3.9998 0 0 0-0.13594-0.2583 4.0001 3.9998 0 0 0-5e-3 -8e-3 4.0001 3.9998 0 0 0-0.14843-0.23801 4.0001 3.9998 0 0 0-0.0136-0.0188 4.0001 3.9998 0 0 0-0.16773-0.22863 4.0001 3.9998 0 0 0-5.1e-4 -5.2e-4 4.0001 3.9998 0 0 0-0.18386-0.21561 4.0001 3.9998 0 0 0-0.0146-0.0161 4.0001 3.9998 0 0 0-5.2e-4 -5.1e-4 4.0001 3.9998 0 0 0-0.20364-0.20468 4.0001 3.9998 0 0 0-4e-3 -4e-3 4.0001 3.9998 0 0 0-0.22137-0.19166 4.0001 3.9998 0 0 0-4e-3 -2e-3 4.0001 3.9998 0 0 0-0.23438-0.17448 4.0001 3.9998 0 0 0-6e-3 -4e-3 4.0001 3.9998 0 0 0-0.23176-0.14738 4.0001 3.9998 0 0 0-0.024-0.0141 4.0001 3.9998 0 0 0-0.51408-0.25051 4.0001 3.9998 0 0 0-0.0256-0.0101 4.0001 3.9998 0 0 0-0.26513-0.0943 4.0001 3.9998 0 0 0-8e-3 -2e-3 4.0001 3.9998 0 0 0-0.85418-0.16768 4.0001 3.9998 0 0 0-0.0219-0.0021 4.0001 3.9998 0 0 0-0.2745-0.01197 4.0001 3.9998 0 0 0-0.0146-5.2e-4 4.0001 3.9998 0 0 0-0.0203 0 4.0001 3.9998 0 0 0-6e-3 0 3.0001 2.9998 0 0 0-3e-3 0zm4.0032 3.9998a4.0001 3.9998 0 0 0 0.0113 0.29738 4.0001 3.9998 0 0 0 0.0146 0.13125 4.0001 3.9998 0 0 0 0.0188 0.16509 4.0001 3.9998 0 0 0 5.2e-4 3e-3 4.0001 3.9998 0 0 0 0.0557 0.29375 4.0001 3.9998 0 0 0 0.0761 0.28591 4.0001 3.9998 0 0 0 0.0375 0.10734 4.0001 3.9998 0 0 0 0.062 0.17654 4.0001 3.9998 0 0 0 0.0166 0.0387 4.0001 3.9998 0 0 0 0.10364 0.23695 4.0001 3.9998 0 0 0 0.13854 0.26247 4.0001 3.9998 0 0 0 0.026 0.0417 4.0001 3.9998 0 0 0 0.13438 0.21354 4.0001 3.9998 0 0 0 0.17607 0.23851 4.0001 3.9998 0 0 0 0.0469 0.0547 4.0001 3.9998 0 0 0 0.14636 0.17084 4.0001 3.9998 0 0 0 0.099 0.0995 4.0001 3.9998 0 0 0 0.10885 0.10885 4.0001 3.9998 0 0 0 0.11248 0.0979 4.0001 3.9998 0 0 0 0.1172 0.1 4.0001 3.9998 0 0 0 0.11037 0.0823 4.0001 3.9998 0 0 0 0.12497 0.0927 4.0001 3.9998 0 0 0 0.12863 0.0818 4.0001 3.9998 0 0 0 0.12814 0.0803 4.0001 3.9998 0 0 0 0.10937 0.0583 4.0001 3.9998 0 0 0 0.1526 0.0803 4.0001 3.9998 0 0 0 0.12032 0.0537 4.0001 3.9998 0 0 0 0.15416 0.0678 4.0001 3.9998 0 0 0 0.15001 0.0532 4.0001 3.9998 0 0 0 0.12606 0.0442 4.0001 3.9998 0 0 0 0.16978 0.0465 4.0001 3.9998 0 0 0 0.12184 0.0323 4.0001 3.9998 0 0 0 0.14013 0.0276 4.0001 3.9998 0 0 0 0.15416 0.0292 4.0001 3.9998 0 0 0 0.14323 0.0171 4.0001 3.9998 0 0 0 0.15155 0.0171 4.0001 3.9998 0 0 0 0.14795 6e-3 4.0001 3.9998 0 0 0 0.1375 6e-3 4.0001 3.9998 0 0 0 0.0202 0 4.0001 3.9998 0 0 0 6e-3 0 4.0001 3.9998 0 0 0 0.0183-5.2e-4 3.0001 2.9998 0 0 0 0.0703-1e-3 4.0001 3.9998 0 0 0 3.9116-3.9982 4.0001 3.9998 0 0 0-4.0001-3.9998 4.0001 3.9998 0 0 0-2.398 0.80203c-0.36419-0.48621-0.9452-0.79942-1.6021-0.79942zm-4.0001-1.9999a2.0001 1.9999 0 0 1 0.20888 0.0113 2.0001 1.9999 0 0 1 5e-3 5.1e-4 2.0001 1.9999 0 0 1 0.19741 0.0318 2.0001 1.9999 0 0 1 8e-3 9.4e-4 2.0001 1.9999 0 0 1 0.19948 0.0532 2.0001 1.9999 0 0 1 5.2e-4 0 2.0001 1.9999 0 0 1 0.18905 0.0729 2.0001 1.9999 0 0 1 0.0104 4e-3 2.0001 1.9999 0 0 1 0.17607 0.0901 2.0001 1.9999 0 0 1 0.0113 6e-3 2.0001 1.9999 0 0 1 0.16198 0.10468 2.0001 1.9999 0 0 1 0.016 0.0126 2.0001 1.9999 0 0 1 0.14896 0.12031 2.0001 1.9999 0 0 1 0.013 0.0126 2.0001 1.9999 0 0 1 0.13804 0.13801 2.0001 1.9999 0 0 1 6e-3 8e-3 2.0001 1.9999 0 0 1 0.12233 0.15103 2.0001 1.9999 0 0 1 0.0126 0.0166 2.0001 1.9999 0 0 1 0.10052 0.15467 2.0001 1.9999 0 0 1 0.0146 0.0256 2.0001 1.9999 0 0 1 0.0854 0.16873 2.0001 1.9999 0 0 1 4e-3 9e-3 2.0001 1.9999 0 0 1 0.0707 0.18437 2.0001 1.9999 0 0 1 5e-3 0.0161 2.0001 1.9999 0 0 1 0.0505 0.18956 2.0001 1.9999 0 0 1 1e-3 8e-3 2.0001 1.9999 0 0 1 0.0323 0.20052 2.0001 1.9999 0 0 1 0 5e-3 2.0001 1.9999 0 0 1 0.0112 0.20574 2.0001 1.9999 0 0 1-2.0001 1.9999 2.0001 1.9999 0 0 1-0.11451-6e-3 2.0001 1.9999 0 0 1-0.10261-6e-3 2.0001 1.9999 0 0 1-0.1057-0.0171 2.0001 1.9999 0 0 1-0.0984-0.0161 2.0001 1.9999 0 0 1-0.12081-0.0323 2.0001 1.9999 0 0 1-0.0808-0.0219 2.0001 1.9999 0 0 1-0.0959-0.037 2.0001 1.9999 0 0 1-0.28596-0.13435 2.0001 1.9999 0 0 1-0.0661-0.0427 2.0001 1.9999 0 0 1-0.27916-0.21143 2.0001 1.9999 0 0 1-0.13858-0.13962 2.0001 1.9999 0 0 1-0.1328-0.16454 2.0001 1.9999 0 0 1-0.20573-0.35728 2.0001 1.9999 0 0 1-1e-3 -3e-3 2.0001 1.9999 0 0 1-0.038-0.1 2.0001 1.9999 0 0 1-0.0363-0.0948 2.0001 1.9999 0 0 1-0.0538-0.20104 2.0001 1.9999 0 0 1-5.2e-4 -1e-3 2.0001 1.9999 0 0 1-0.0204-0.12863 2.0001 1.9999 0 0 1-0.0126-0.0776 2.0001 1.9999 0 0 1-0.0114-0.20778 2.0001 1.9999 0 0 1 0.0114-0.20885 2.0001 1.9999 0 0 1 0.0869-0.40936 2.0001 1.9999 0 0 1 0.28386-0.55724 2.0001 1.9999 0 0 1 0.28023-0.31094 2.0001 1.9999 0 0 1 0.16249-0.13175 2.0001 1.9999 0 0 1 0.75939-0.33801 2.0001 1.9999 0 0 1 5.2e-4 0 2.0001 1.9999 0 0 1 0.20679-0.0328 2.0001 1.9999 0 0 1 0.20885-0.0113zm8.0003 0a2.0001 1.9999 0 0 1 0.2052 0.0113 2.0001 1.9999 0 0 1 4e-3 0 2.0001 1.9999 0 0 1 3e-3 5.1e-4 2.0001 1.9999 0 0 1 0.20315 0.0323 2.0001 1.9999 0 0 1 5.2e-4 0 2.0001 1.9999 0 0 1 5.3e-4 0 2.0001 1.9999 0 0 1 0.2005 0.0537 2.0001 1.9999 0 0 1 3e-3 9.4e-4 2.0001 1.9999 0 0 1 0.18646 0.0713 2.0001 1.9999 0 0 1 0.013 6e-3 2.0001 1.9999 0 0 1 5e-3 3e-3 2.0001 1.9999 0 0 1 0.17033 0.0869 2.0001 1.9999 0 0 1 9e-3 5e-3 2.0001 1.9999 0 0 1 0.16198 0.10519 2.0001 1.9999 0 0 1 0.0161 0.0113 2.0001 1.9999 0 0 1 1e-3 1e-3 2.0001 1.9999 0 0 1 0.15209 0.12347 2.0001 1.9999 0 0 1 9e-3 9e-3 2.0001 1.9999 0 0 1 0.14011 0.14061 2.0001 1.9999 0 0 1 6e-3 8e-3 2.0001 1.9999 0 0 1 0.12233 0.15103 2.0001 1.9999 0 0 1 8e-3 0.0113 2.0001 1.9999 0 0 1 0.10622 0.16352 2.0001 1.9999 0 0 1 8e-3 0.0126 2.0001 1.9999 0 0 1 0.0906 0.17916 2.0001 1.9999 0 0 1 3e-3 6e-3 2.0001 1.9999 0 0 1 0.0734 0.19113 2.0001 1.9999 0 0 1 1e-3 4e-3 2.0001 1.9999 0 0 1 0.0532 0.19946 2.0001 1.9999 0 0 1 5.2e-4 1e-3 2.0001 1.9999 0 0 1 0.0317 0.20364 2.0001 1.9999 0 0 1 5.3e-4 3e-3 2.0001 1.9999 0 0 1 0.0113 0.2078 2.0001 1.9999 0 0 1-0.17292 0.81347 2.0001 1.9999 0 0 1-0.20887 0.36197 2.0001 1.9999 0 0 1-0.44272 0.4427 2.0001 1.9999 0 0 1-0.362 0.20882 2.0001 1.9999 0 0 1-0.6047 0.16197 2.0001 1.9999 0 0 1-0.20885 0.0112 2.0001 1.9999 0 0 1-0.81357-0.17292 2.0001 1.9999 0 0 1-0.362-0.20882 2.0001 1.9999 0 0 1-0.82451-1.6182 2.0001 1.9999 0 0 1 2.0001-1.9999z" stroke-width=".2329"/>
 </g>
</svg>
